<svg width="603" height="188" viewBox="0 0 603 188" fill="none" xmlns="http://www.w3.org/2000/svg">
<rect x="8" y="8" width="587" height="172" fill="white"/>
<rect x="8" y="8" width="587" height="172" stroke="black" stroke-width="16"/>
<path d="M30.9105 140L70.8465 50.4H91.3265L131.391 140H109.631L76.8625 60.896H85.0545L52.1585 140H30.9105ZM50.8785 120.8L56.3825 105.056H102.463L108.095 120.8H50.8785ZM140.687 140V50.4H179.471C187.492 50.4 194.404 51.7227 200.207 54.368C206.009 56.928 210.489 60.64 213.647 65.504C216.804 70.368 218.383 76.1707 218.383 82.912C218.383 89.568 216.804 95.328 213.647 100.192C210.489 104.971 206.009 108.64 200.207 111.2C194.404 113.76 187.492 115.04 179.471 115.04H152.207L161.423 105.952V140H140.687ZM197.646 140L175.247 107.488H197.391L220.047 140H197.646ZM161.423 108.256L152.207 98.528H178.319C184.719 98.528 189.497 97.1627 192.655 94.432C195.812 91.616 197.391 87.776 197.391 82.912C197.391 77.9627 195.812 74.1227 192.655 71.392C189.497 68.6613 184.719 67.296 178.319 67.296H152.207L161.423 57.44V108.256ZM230.594 111.968V95.968H266.818V111.968H230.594ZM327.832 141.536C320.749 141.536 314.178 140.384 308.12 138.08C302.146 135.776 296.941 132.533 292.503 128.352C288.152 124.171 284.738 119.264 282.264 113.632C279.874 108 278.68 101.856 278.68 95.2C278.68 88.544 279.874 82.4 282.264 76.768C284.738 71.136 288.194 66.2293 292.632 62.048C297.069 57.8667 302.274 54.624 308.248 52.32C314.221 50.016 320.706 48.864 327.704 48.864C334.786 48.864 341.271 50.016 347.16 52.32C353.133 54.624 358.296 57.8667 362.648 62.048C367.085 66.2293 370.541 71.136 373.016 76.768C375.49 82.3147 376.728 88.4587 376.728 95.2C376.728 101.856 375.49 108.043 373.016 113.76C370.541 119.392 367.085 124.299 362.648 128.48C358.296 132.576 353.133 135.776 347.16 138.08C341.271 140.384 334.829 141.536 327.832 141.536ZM327.704 123.872C331.714 123.872 335.384 123.189 338.712 121.824C342.125 120.459 345.112 118.496 347.672 115.936C350.232 113.376 352.194 110.347 353.56 106.848C355.01 103.349 355.736 99.4667 355.736 95.2C355.736 90.9333 355.01 87.0507 353.56 83.552C352.194 80.0533 350.232 77.024 347.672 74.464C345.197 71.904 342.253 69.9413 338.84 68.576C335.426 67.2107 331.714 66.528 327.704 66.528C323.693 66.528 319.981 67.2107 316.568 68.576C313.24 69.9413 310.296 71.904 307.736 74.464C305.176 77.024 303.17 80.0533 301.72 83.552C300.354 87.0507 299.672 90.9333 299.672 95.2C299.672 99.3813 300.354 103.264 301.72 106.848C303.17 110.347 305.133 113.376 307.608 115.936C310.168 118.496 313.154 120.459 316.568 121.824C319.981 123.189 323.693 123.872 327.704 123.872ZM392.312 140V50.4H409.464L462.328 114.912H454.007V50.4H474.488V140H457.464L404.472 75.488H412.792V140H392.312ZM514.759 86.496H557.895V102.624H514.759V86.496ZM516.295 123.36H565.062V140H495.687V50.4H563.399V67.04H516.295V123.36Z" fill="black"/>
</svg>
